<?xml version="1.0" standalone="no"?>
<!DOCTYPE svg PUBLIC "-//W3C//DTD SVG 20010904//EN"
 "http://www.w3.org/TR/2001/REC-SVG-20010904/DTD/svg10.dtd">
<svg version="1.0" xmlns="http://www.w3.org/2000/svg"
 width="500.000000pt" height="500.000000pt" viewBox="0 0 500.000000 500.000000"
 preserveAspectRatio="xMidYMid meet">

<g transform="translate(0.000000,500.000000) scale(0.100000,-0.100000)"
fill="#000000" stroke="none">
<path d="M2311 3560 c-287 -76 -498 -299 -557 -592 -20 -96 -15 -247 11 -343
72 -264 303 -484 568 -542 92 -20 242 -20 334 0 265 58 497 279 568 542 22 84
30 237 16 319 -53 303 -272 542 -565 616 -106 27 -272 27 -375 0z m411 -33
c234 -74 427 -278 489 -514 28 -107 28 -270 0 -375 -64 -245 -259 -448 -506
-524 -86 -27 -324 -27 -410 0 -247 76 -442 279 -506 524 -28 106 -28 269 0
375 70 269 306 487 579 537 85 16 268 4 354 -23z"/>
<path d="M2640 3150 c5 -16 12 -34 15 -41 14 -22 75 -39 138 -39 77 0 122 -25
151 -83 26 -54 15 -102 -35 -149 -37 -35 -45 -38 -98 -38 -65 0 -87 -12 -97
-54 l-7 -29 22 22 c16 16 33 21 73 21 117 0 194 78 186 188 -8 111 -73 162
-210 162 -83 1 -83 1 -108 35 -31 42 -41 44 -30 5z"/>
<path d="M2304 3133 c-8 -13 -31 -19 -95 -24 -99 -7 -140 -26 -173 -77 -46
-71 -42 -149 11 -213 37 -44 80 -59 165 -59 71 0 75 -1 112 -37 l39 -38 -7 30
c-13 55 -37 69 -131 76 -98 8 -141 28 -168 79 -28 54 -18 114 27 159 35 35 39
36 121 40 83 3 86 4 101 33 17 32 15 58 -2 31z"/>
<path d="M1744 1980 c-83 -33 -97 -192 -23 -254 50 -42 148 -27 164 25 11 33
-4 36 -29 4 -32 -40 -88 -41 -122 -1 -33 37 -35 140 -3 180 28 36 89 37 117 1
11 -14 25 -25 32 -25 22 0 5 34 -29 57 -35 24 -70 28 -107 13z"/>
<path d="M3410 1978 c-14 -8 -31 -26 -38 -41 -21 -44 1 -76 76 -106 70 -29 89
-50 72 -80 -16 -32 -73 -37 -115 -12 -43 25 -45 25 -45 6 0 -20 52 -45 95 -45
77 0 120 50 93 108 -10 20 -29 33 -73 48 -72 26 -92 50 -69 83 14 19 23 22 58
18 22 -2 52 -8 66 -12 l25 -8 -21 22 c-26 27 -90 37 -124 19z"/>
<path d="M1112 1843 l3 -138 93 -3 c77 -2 92 0 92 13 0 12 -14 15 -75 15 l-75
0 0 50 0 50 56 0 c73 0 70 24 -4 28 l-52 3 0 50 0 49 70 0 c40 0 70 4 70 10 0
6 -37 10 -90 10 l-91 0 3 -137z"/>
<path d="M2020 1840 c0 -116 3 -140 15 -140 11 0 15 16 17 68 l3 67 67 3 67 3
3 -68 c2 -55 6 -68 21 -71 15 -3 17 9 17 137 0 134 -1 141 -20 141 -18 0 -20
-7 -20 -60 l0 -61 -67 3 -68 3 -3 58 c-2 42 -7 57 -17 57 -12 0 -15 -24 -15
-140z"/>
<path d="M2370 1840 c0 -118 2 -140 15 -140 13 0 15 22 15 140 0 118 -2 140
-15 140 -13 0 -15 -22 -15 -140z"/>
<path d="M2550 1840 c0 -118 2 -140 15 -140 11 0 15 12 15 48 0 40 5 53 28 75
l28 27 44 -75 c29 -49 51 -75 63 -75 21 0 19 3 -46 110 -25 41 -36 68 -31 76
5 7 24 31 42 53 57 70 11 46 -60 -31 l-67 -73 -1 73 c0 57 -3 72 -15 72 -13 0
-15 -22 -15 -140z"/>
<path d="M2880 1840 c0 -118 2 -140 15 -140 13 0 15 22 15 140 0 118 -2 140
-15 140 -13 0 -15 -22 -15 -140z"/>
<path d="M3040 1970 c0 -5 20 -10 45 -10 l45 0 0 -130 c0 -109 2 -130 15 -130
13 0 15 21 15 130 l0 130 45 0 c25 0 45 5 45 10 0 6 -42 10 -105 10 -63 0
-105 -4 -105 -10z"/>
<path d="M3717 1848 c-51 -143 -52 -148 -37 -148 6 0 17 18 26 40 l16 40 64 0
63 0 12 -40 c8 -27 18 -40 30 -40 16 0 14 10 -18 98 -19 53 -42 116 -50 140
-11 32 -20 42 -37 42 -19 0 -28 -17 -69 -132z m92 40 c12 -34 21 -66 21 -70 0
-4 -22 -8 -49 -8 l-50 0 19 53 c23 66 31 87 35 87 2 0 13 -28 24 -62z"/>
<path d="M1410 1670 c0 -6 30 -10 70 -10 40 0 70 4 70 10 0 6 -30 10 -70 10
-40 0 -70 -4 -70 -10z"/>
<path d="M1518 1574 c-12 -11 -10 -102 2 -109 6 -4 10 5 10 19 0 22 5 26 29
26 25 0 30 -5 34 -27 2 -16 4 1 5 37 0 41 -3 56 -7 40 -5 -17 -15 -26 -33 -28
-22 -3 -27 1 -30 23 -2 15 -6 23 -10 19z"/>
<path d="M1634 1566 c-3 -7 -4 -33 -2 -57 3 -43 4 -44 41 -47 21 -2 37 1 37 7
0 6 -13 11 -30 11 -20 0 -30 5 -30 15 0 8 9 15 20 15 11 0 20 5 20 10 0 6 -9
10 -20 10 -11 0 -20 7 -20 15 0 10 10 15 30 15 17 0 30 5 30 10 0 16 -70 12
-76 -4z"/>
<path d="M1752 1520 c-12 -33 -17 -60 -12 -60 4 0 10 7 14 15 3 8 17 15 31 15
16 0 25 -6 25 -15 0 -8 5 -15 11 -15 7 0 9 10 4 27 -11 45 -33 93 -44 93 -5 0
-18 -27 -29 -60z m41 10 c4 -15 0 -20 -13 -20 -13 0 -17 5 -13 20 3 11 9 20
13 20 4 0 10 -9 13 -20z"/>
<path d="M1860 1520 l0 -60 41 0 c24 0 38 4 34 10 -3 6 -17 10 -31 10 -22 0
-24 4 -24 50 0 28 -4 50 -10 50 -6 0 -10 -27 -10 -60z"/>
<path d="M1950 1570 c0 -5 9 -10 20 -10 17 0 20 -7 20 -50 0 -27 5 -50 10 -50
6 0 10 23 10 50 0 38 4 50 15 50 8 0 15 5 15 10 0 6 -20 10 -45 10 -25 0 -45
-4 -45 -10z"/>
<path d="M2068 1574 c-12 -11 -10 -102 2 -109 6 -4 10 5 10 19 0 22 5 26 29
26 25 0 30 -5 34 -27 2 -16 4 1 5 37 0 41 -3 56 -7 40 -5 -17 -15 -26 -33 -28
-22 -3 -27 1 -30 23 -2 15 -6 23 -10 19z"/>
<path d="M2197 1562 c-38 -42 -4 -111 48 -98 14 4 25 13 25 22 0 14 -2 14 -16
0 -8 -9 -19 -16 -23 -16 -16 0 -31 25 -31 52 0 34 32 55 50 33 7 -9 15 -13 18
-10 9 8 -20 35 -38 35 -9 0 -24 -8 -33 -18z"/>
<path d="M2313 1520 c-12 -33 -18 -60 -13 -60 4 0 10 7 14 15 3 8 16 15 30 15
13 0 26 -7 30 -15 3 -8 10 -15 15 -15 6 0 0 27 -11 60 -12 33 -27 60 -32 60
-6 0 -21 -27 -33 -60z m47 -2 c0 -5 -7 -8 -15 -8 -15 0 -20 21 -8 33 7 7 23
-11 23 -25z"/>
<path d="M2420 1520 c0 -33 4 -60 10 -60 6 0 10 11 10 25 0 14 6 25 13 25 8 0
19 -11 25 -25 6 -14 16 -25 22 -25 7 0 7 7 -1 21 -8 17 -8 27 2 46 12 22 11
27 -6 39 -10 8 -31 14 -47 14 -28 0 -28 -1 -28 -60z m70 25 c0 -9 -9 -15 -25
-15 -16 0 -25 6 -25 15 0 9 9 15 25 15 16 0 25 -6 25 -15z"/>
<path d="M2534 1566 c-3 -7 -4 -33 -2 -57 3 -43 4 -44 41 -47 21 -2 37 1 37 7
0 6 -13 11 -30 11 -20 0 -30 5 -30 15 0 8 9 15 20 15 11 0 20 5 20 10 0 6 -9
10 -20 10 -11 0 -20 7 -20 15 0 10 10 15 30 15 17 0 30 5 30 10 0 16 -70 12
-76 -4z"/>
<path d="M2682 1571 c-21 -13 -10 -44 21 -59 15 -7 27 -17 27 -23 0 -16 -29
-22 -45 -9 -11 9 -15 9 -15 1 0 -16 26 -24 55 -17 37 9 33 45 -5 59 -40 15
-36 43 5 39 23 -2 26 0 15 8 -18 12 -41 13 -58 1z"/>
<path d="M2790 1560 c-24 -24 -25 -48 -4 -78 17 -24 53 -29 72 -10 20 20 15
86 -7 98 -28 14 -38 13 -61 -10z m60 -40 c0 -44 -26 -63 -47 -34 -17 24 -16
49 2 68 25 24 45 9 45 -34z"/>
<path d="M2900 1520 l0 -60 41 0 c24 0 38 4 34 10 -3 6 -17 10 -31 10 -22 0
-24 4 -24 50 0 28 -4 50 -10 50 -6 0 -10 -27 -10 -60z"/>
<path d="M3000 1532 c0 -26 5 -53 12 -60 18 -18 56 -14 68 7 13 25 13 88 0 96
-6 4 -10 -13 -10 -43 0 -36 -4 -52 -16 -56 -26 -10 -34 3 -34 55 0 27 -4 49
-10 49 -5 0 -10 -22 -10 -48z"/>
<path d="M3110 1570 c0 -5 7 -10 15 -10 11 0 15 -12 15 -50 0 -27 5 -50 10
-50 6 0 10 23 10 50 0 43 3 50 20 50 11 0 20 5 20 10 0 6 -20 10 -45 10 -25 0
-45 -4 -45 -10z"/>
<path d="M3220 1520 c0 -33 4 -60 10 -60 6 0 10 27 10 60 0 33 -4 60 -10 60
-6 0 -10 -27 -10 -60z"/>
<path d="M3286 1567 c-13 -9 -17 -23 -14 -52 2 -33 8 -41 32 -50 24 -8 31 -6
47 14 24 30 24 56 -1 81 -23 23 -39 25 -64 7z m48 -13 c30 -29 8 -92 -27 -78
-20 7 -24 79 -4 87 6 3 13 6 14 6 1 1 9 -6 17 -15z"/>
<path d="M3390 1520 c0 -33 4 -60 10 -60 6 0 10 19 10 42 l0 42 31 -42 c17
-23 33 -42 35 -42 2 0 3 28 2 63 -1 59 -1 60 -7 18 l-6 -45 -28 42 c-15 23
-32 42 -37 42 -6 0 -10 -27 -10 -60z"/>
</g>
</svg>
