<?xml version="1.0" standalone="no"?>
<!DOCTYPE svg PUBLIC "-//W3C//DTD SVG 20010904//EN"
 "http://www.w3.org/TR/2001/REC-SVG-20010904/DTD/svg10.dtd">
<svg version="1.0" xmlns="http://www.w3.org/2000/svg"
 width="242.000000pt" height="208.000000pt" viewBox="0 0 242.000000 208.000000"
 preserveAspectRatio="xMidYMid meet">

<g transform="translate(0.000000,208.000000) scale(0.100000,-0.100000)"
fill="#000000" stroke="none">
<path d="M1020 1560 l0 -80 -80 0 -80 0 0 -105 0 -105 80 0 80 0 0 -80 0 -80
105 0 105 0 0 80 0 80 80 0 80 0 0 105 0 105 -80 0 -80 0 0 80 0 80 -105 0
-105 0 0 -80z"/>
<path d="M284 1514 c-68 -151 -94 -275 -94 -439 0 -469 286 -855 735 -991 83
-25 104 -28 260 -28 178 0 262 14 377 63 72 31 205 186 270 316 85 168 123
381 101 564 l-6 53 -24 -83 c-27 -95 -87 -227 -135 -296 -56 -83 -179 -203
-267 -261 l-86 -57 -145 0 c-109 0 -162 5 -214 19 -216 58 -405 184 -537 359
-72 94 -149 249 -179 357 -31 115 -45 278 -32 385 6 50 8 92 6 94 -2 2 -16
-22 -30 -55z"/>
<path d="M698 1199 c-16 -9 -18 -28 -18 -162 1 -100 5 -159 13 -174 7 -12 54
-67 105 -122 64 -71 92 -109 92 -126 0 -25 2 -25 80 -25 l80 0 0 67 0 66 -117
119 c-64 65 -125 118 -135 118 -9 0 -22 -9 -28 -20 -9 -16 -1 -30 55 -91 63
-71 81 -109 50 -109 -8 0 -15 4 -15 9 0 6 -29 44 -65 86 -36 42 -65 85 -65 96
0 10 9 28 20 39 17 17 20 33 20 120 0 88 -2 100 -19 110 -24 12 -31 12 -53 -1z"/>
<path d="M1492 1198 c-19 -19 -16 -212 3 -228 31 -26 18 -66 -45 -137 -33 -37
-60 -73 -60 -80 0 -7 -6 -13 -13 -13 -40 0 -26 32 50 112 61 65 68 101 23 106
-21 2 -46 -18 -138 -111 l-112 -114 0 -71 0 -72 80 0 80 0 0 28 c0 20 24 53
99 134 66 72 100 117 105 139 3 17 6 89 6 160 0 103 -3 131 -16 143 -18 19
-45 21 -62 4z"/>
</g>
</svg>
